# xmcd
#
# Track frame offsets: 
#        150
#        12794
#        35561
#        53221
#        67909
#        82555
#        104640
#        127766
#        144756
#        169394
#        180902
#
# Disc length: 2769 seconds
#
# Revision: 0
# Processed by: cddbd v1.5.2PL0 Copyright (c) Steve Scherf et al.
# Submitted via: ExactAudioCopy v1.3
#
DISCID=7d0acf0b
DTITLE=Robert Nighthawk and The Wampus Cats - Cheating Time
DYEAR=2019
DGENRE=Blues
TTITLE0=Cheating Time
TTITLE1=Broken Heart
TTITLE2=Lost At Love
TTITLE3=Will To Swing
TTITLE4=Do Me That Way
TTITLE5=Sputnik Monroe
TTITLE6=Regardless
TTITLE7=I'm Blue
TTITLE8=Duplicity
TTITLE9=She's Stopping Traffic
TTITLE10=Foxy Brown
EXTD=
EXTT0=
EXTT1=
EXTT2=
EXTT3=
EXTT4=
EXTT5=
EXTT6=
EXTT7=
EXTT8=
EXTT9=
EXTT10=
PLAYORDER=
